# xmcd
#
# Track frame offsets: 
#        150
#        37928
#        73194
#        109771
#        219337
#        225826
#        305430
#        321353
#
# Disc length: 4799 seconds
#
# Revision: 0
# Processed by: cddbd v1.5.1PL0 Copyright (c) Steve Scherf et al.
# Submitted via: ExactAudioCopy v0.95a4
#
DISCID=6412bd08
DTITLE=B.B. King - The Generation Club Live
DYEAR=1900
DGENRE=Blues
TTITLE0=Ad Libbed Impromptu Blues
TTITLE1=Kooper's Shuffle
TTITLE2=Like A Rolling Stone
TTITLE3=Jam
TTITLE4=Intro By B.B. King
TTITLE5=Slow Blues
TTITLE6=Fast Blues
TTITLE7=It's My Own Fault
EXTD=
EXTT0=
EXTT1=
EXTT2=
EXTT3=
EXTT4=
EXTT5=
EXTT6=
EXTT7=
PLAYORDER=
